<mxfile host="Electron" modified="2024-02-17T11:46:34.338Z" agent="Mozilla/5.0 (X11; Linux x86_64) AppleWebKit/537.36 (KHTML, like Gecko) draw.io/22.1.11 Chrome/114.0.5735.289 Electron/25.9.8 Safari/537.36" etag="CRdR_PuRCVoizEYJ-iwY" version="22.1.11" type="device" pages="3">
  <diagram name="Main" id="TiPuaGFlhRPx2ZHi7Z9F">
    <mxGraphModel dx="1434" dy="839" grid="1" gridSize="10" guides="1" tooltips="1" connect="1" arrows="1" fold="1" page="1" pageScale="1" pageWidth="1100" pageHeight="850" math="0" shadow="0">
      <root>
        <mxCell id="0" />
        <mxCell id="1" parent="0" />
        <mxCell id="gtngxnisy009j0TbQlZk-15" style="edgeStyle=entityRelationEdgeStyle;rounded=0;orthogonalLoop=1;jettySize=auto;html=1;entryX=0;entryY=0.5;entryDx=0;entryDy=0;" parent="1" source="gtngxnisy009j0TbQlZk-4" target="gtngxnisy009j0TbQlZk-7" edge="1">
          <mxGeometry relative="1" as="geometry" />
        </mxCell>
        <mxCell id="gtngxnisy009j0TbQlZk-16" style="edgeStyle=entityRelationEdgeStyle;rounded=0;orthogonalLoop=1;jettySize=auto;html=1;entryX=0;entryY=0.5;entryDx=0;entryDy=0;" parent="1" source="gtngxnisy009j0TbQlZk-4" target="gtngxnisy009j0TbQlZk-8" edge="1">
          <mxGeometry relative="1" as="geometry" />
        </mxCell>
        <mxCell id="gtngxnisy009j0TbQlZk-4" value="Stournal&#39;s&lt;br&gt;Micro-Components" style="whiteSpace=wrap;html=1;align=center;" parent="1" vertex="1">
          <mxGeometry x="70" y="390" width="125" height="40" as="geometry" />
        </mxCell>
        <mxCell id="gtngxnisy009j0TbQlZk-18" style="edgeStyle=entityRelationEdgeStyle;rounded=0;orthogonalLoop=1;jettySize=auto;html=1;entryX=0;entryY=0.5;entryDx=0;entryDy=0;" parent="1" source="gtngxnisy009j0TbQlZk-5" target="gtngxnisy009j0TbQlZk-17" edge="1">
          <mxGeometry relative="1" as="geometry" />
        </mxCell>
        <mxCell id="gtngxnisy009j0TbQlZk-22" style="edgeStyle=entityRelationEdgeStyle;rounded=0;orthogonalLoop=1;jettySize=auto;html=1;entryX=0;entryY=0.5;entryDx=0;entryDy=0;" parent="1" source="gtngxnisy009j0TbQlZk-5" target="gtngxnisy009j0TbQlZk-20" edge="1">
          <mxGeometry relative="1" as="geometry" />
        </mxCell>
        <mxCell id="gtngxnisy009j0TbQlZk-5" value="Notes" style="rounded=1;arcSize=10;whiteSpace=wrap;html=1;align=center;" parent="1" vertex="1">
          <mxGeometry x="325" y="190" width="100" height="50" as="geometry" />
        </mxCell>
        <mxCell id="gtngxnisy009j0TbQlZk-30" style="edgeStyle=entityRelationEdgeStyle;rounded=0;orthogonalLoop=1;jettySize=auto;html=1;" parent="1" source="gtngxnisy009j0TbQlZk-6" target="gtngxnisy009j0TbQlZk-29" edge="1">
          <mxGeometry relative="1" as="geometry" />
        </mxCell>
        <mxCell id="gtngxnisy009j0TbQlZk-32" style="edgeStyle=entityRelationEdgeStyle;rounded=0;orthogonalLoop=1;jettySize=auto;html=1;exitX=1;exitY=0.5;exitDx=0;exitDy=0;entryX=0;entryY=0.5;entryDx=0;entryDy=0;" parent="1" source="gtngxnisy009j0TbQlZk-6" target="gtngxnisy009j0TbQlZk-31" edge="1">
          <mxGeometry relative="1" as="geometry" />
        </mxCell>
        <mxCell id="gtngxnisy009j0TbQlZk-34" style="edgeStyle=entityRelationEdgeStyle;rounded=0;orthogonalLoop=1;jettySize=auto;html=1;entryX=0;entryY=0.5;entryDx=0;entryDy=0;" parent="1" source="gtngxnisy009j0TbQlZk-6" target="gtngxnisy009j0TbQlZk-33" edge="1">
          <mxGeometry relative="1" as="geometry" />
        </mxCell>
        <mxCell id="gtngxnisy009j0TbQlZk-6" value="Calculators" style="rounded=1;arcSize=10;whiteSpace=wrap;html=1;align=center;" parent="1" vertex="1">
          <mxGeometry x="355" y="320" width="100" height="40" as="geometry" />
        </mxCell>
        <mxCell id="gtngxnisy009j0TbQlZk-28" style="edgeStyle=entityRelationEdgeStyle;rounded=0;orthogonalLoop=1;jettySize=auto;html=1;entryX=0;entryY=0.5;entryDx=0;entryDy=0;" parent="1" source="gtngxnisy009j0TbQlZk-7" target="gtngxnisy009j0TbQlZk-27" edge="1">
          <mxGeometry relative="1" as="geometry" />
        </mxCell>
        <mxCell id="gtngxnisy009j0TbQlZk-7" value="Simulator" style="rounded=1;arcSize=10;whiteSpace=wrap;html=1;align=center;" parent="1" vertex="1">
          <mxGeometry x="355" y="470" width="100" height="40" as="geometry" />
        </mxCell>
        <mxCell id="gtngxnisy009j0TbQlZk-36" style="edgeStyle=entityRelationEdgeStyle;rounded=0;orthogonalLoop=1;jettySize=auto;html=1;entryX=0;entryY=0.5;entryDx=0;entryDy=0;" parent="1" source="gtngxnisy009j0TbQlZk-8" target="gtngxnisy009j0TbQlZk-35" edge="1">
          <mxGeometry relative="1" as="geometry" />
        </mxCell>
        <mxCell id="gtngxnisy009j0TbQlZk-8" value="Documentation" style="rounded=1;arcSize=10;whiteSpace=wrap;html=1;align=center;" parent="1" vertex="1">
          <mxGeometry x="355" y="640" width="100" height="40" as="geometry" />
        </mxCell>
        <mxCell id="gtngxnisy009j0TbQlZk-13" style="edgeStyle=entityRelationEdgeStyle;rounded=0;orthogonalLoop=1;jettySize=auto;html=1;entryX=0.008;entryY=0.423;entryDx=0;entryDy=0;entryPerimeter=0;" parent="1" source="gtngxnisy009j0TbQlZk-4" target="gtngxnisy009j0TbQlZk-5" edge="1">
          <mxGeometry relative="1" as="geometry" />
        </mxCell>
        <mxCell id="gtngxnisy009j0TbQlZk-14" style="edgeStyle=entityRelationEdgeStyle;rounded=0;orthogonalLoop=1;jettySize=auto;html=1;entryX=-0.036;entryY=0.459;entryDx=0;entryDy=0;entryPerimeter=0;" parent="1" source="gtngxnisy009j0TbQlZk-4" target="gtngxnisy009j0TbQlZk-6" edge="1">
          <mxGeometry relative="1" as="geometry" />
        </mxCell>
        <mxCell id="gtngxnisy009j0TbQlZk-17" value="CREATE, READ,&lt;br&gt;UPDATE, DELETE" style="verticalLabelPosition=bottom;verticalAlign=top;html=1;shape=process;whiteSpace=wrap;rounded=1;size=0.14;arcSize=6;" parent="1" vertex="1">
          <mxGeometry x="715" y="150" width="120" height="30" as="geometry" />
        </mxCell>
        <mxCell id="gtngxnisy009j0TbQlZk-26" style="edgeStyle=entityRelationEdgeStyle;rounded=0;orthogonalLoop=1;jettySize=auto;html=1;exitX=1;exitY=0.5;exitDx=0;exitDy=0;entryX=0;entryY=0.5;entryDx=0;entryDy=0;" parent="1" source="gtngxnisy009j0TbQlZk-20" target="gtngxnisy009j0TbQlZk-25" edge="1">
          <mxGeometry relative="1" as="geometry" />
        </mxCell>
        <mxCell id="gtngxnisy009j0TbQlZk-20" value="DOCUMENT PROCESSOR" style="verticalLabelPosition=bottom;verticalAlign=top;html=1;shape=process;whiteSpace=wrap;rounded=1;size=0.14;arcSize=6;" parent="1" vertex="1">
          <mxGeometry x="565" y="220" width="120" height="30" as="geometry" />
        </mxCell>
        <mxCell id="gtngxnisy009j0TbQlZk-23" value="TEMPLATES" style="verticalLabelPosition=bottom;verticalAlign=top;html=1;shape=process;whiteSpace=wrap;rounded=1;size=0.14;arcSize=6;" parent="1" vertex="1">
          <mxGeometry x="860" y="200" width="120" height="30" as="geometry" />
        </mxCell>
        <mxCell id="gtngxnisy009j0TbQlZk-24" style="edgeStyle=entityRelationEdgeStyle;rounded=0;orthogonalLoop=1;jettySize=auto;html=1;entryX=0;entryY=0.5;entryDx=0;entryDy=0;" parent="1" source="gtngxnisy009j0TbQlZk-20" target="gtngxnisy009j0TbQlZk-23" edge="1">
          <mxGeometry relative="1" as="geometry" />
        </mxCell>
        <mxCell id="gtngxnisy009j0TbQlZk-25" value="SPELL &amp;amp; GRAMMAR CHECK" style="verticalLabelPosition=bottom;verticalAlign=top;html=1;shape=process;whiteSpace=wrap;rounded=1;size=0.14;arcSize=6;" parent="1" vertex="1">
          <mxGeometry x="825" y="280" width="120" height="30" as="geometry" />
        </mxCell>
        <mxCell id="gtngxnisy009j0TbQlZk-27" value="?" style="verticalLabelPosition=bottom;verticalAlign=top;html=1;shape=process;whiteSpace=wrap;rounded=1;size=0.14;arcSize=6;" parent="1" vertex="1">
          <mxGeometry x="575" y="555" width="100" height="30" as="geometry" />
        </mxCell>
        <mxCell id="gtngxnisy009j0TbQlZk-29" value="BASIC OPERATIONS" style="verticalLabelPosition=bottom;verticalAlign=top;html=1;shape=process;whiteSpace=wrap;rounded=1;size=0.14;arcSize=6;" parent="1" vertex="1">
          <mxGeometry x="660" y="290" width="100" height="30" as="geometry" />
        </mxCell>
        <mxCell id="gtngxnisy009j0TbQlZk-31" value="SCIENTIFIC OPERATIONS" style="verticalLabelPosition=bottom;verticalAlign=top;html=1;shape=process;whiteSpace=wrap;rounded=1;size=0.14;arcSize=6;" parent="1" vertex="1">
          <mxGeometry x="545" y="410" width="100" height="30" as="geometry" />
        </mxCell>
        <mxCell id="gtngxnisy009j0TbQlZk-33" value="ADVANCED MATHEMATICAL OPERATIONS" style="verticalLabelPosition=bottom;verticalAlign=top;html=1;shape=process;whiteSpace=wrap;rounded=1;size=0.14;arcSize=6;" parent="1" vertex="1">
          <mxGeometry x="685" y="370" width="140" height="30" as="geometry" />
        </mxCell>
        <mxCell id="gtngxnisy009j0TbQlZk-35" value="?" style="verticalLabelPosition=bottom;verticalAlign=top;html=1;shape=process;whiteSpace=wrap;rounded=1;size=0.14;arcSize=6;" parent="1" vertex="1">
          <mxGeometry x="575" y="670" width="100" height="30" as="geometry" />
        </mxCell>
      </root>
    </mxGraphModel>
  </diagram>
  <diagram id="IsXypMTKg5dLY3LFVPgM" name="Document Editor">
    <mxGraphModel dx="1793" dy="1049" grid="1" gridSize="10" guides="1" tooltips="1" connect="1" arrows="1" fold="1" page="1" pageScale="1" pageWidth="1100" pageHeight="850" math="0" shadow="0">
      <root>
        <mxCell id="0" />
        <mxCell id="1" parent="0" />
        <mxCell id="CYzxPPFydzRlZ302f4nZ-12" style="edgeStyle=entityRelationEdgeStyle;rounded=0;orthogonalLoop=1;jettySize=auto;html=1;exitX=1;exitY=0.5;exitDx=0;exitDy=0;entryX=0;entryY=0.5;entryDx=0;entryDy=0;strokeWidth=1;" edge="1" parent="1" source="CYzxPPFydzRlZ302f4nZ-2" target="CYzxPPFydzRlZ302f4nZ-9">
          <mxGeometry relative="1" as="geometry" />
        </mxCell>
        <mxCell id="CYzxPPFydzRlZ302f4nZ-20" style="edgeStyle=entityRelationEdgeStyle;rounded=0;orthogonalLoop=1;jettySize=auto;html=1;entryX=0;entryY=0.5;entryDx=0;entryDy=0;strokeWidth=1;" edge="1" parent="1" source="CYzxPPFydzRlZ302f4nZ-2" target="CYzxPPFydzRlZ302f4nZ-7">
          <mxGeometry relative="1" as="geometry" />
        </mxCell>
        <mxCell id="CYzxPPFydzRlZ302f4nZ-2" value="Document" style="rounded=1;whiteSpace=wrap;html=1;absoluteArcSize=1;arcSize=14;strokeWidth=1;" vertex="1" parent="1">
          <mxGeometry x="130" y="415" width="100" height="40" as="geometry" />
        </mxCell>
        <mxCell id="CYzxPPFydzRlZ302f4nZ-18" style="edgeStyle=entityRelationEdgeStyle;rounded=0;orthogonalLoop=1;jettySize=auto;html=1;entryX=0;entryY=0.5;entryDx=0;entryDy=0;strokeWidth=1;" edge="1" parent="1" source="CYzxPPFydzRlZ302f4nZ-5" target="CYzxPPFydzRlZ302f4nZ-10">
          <mxGeometry relative="1" as="geometry" />
        </mxCell>
        <mxCell id="CYzxPPFydzRlZ302f4nZ-5" value="Temp File Creation" style="verticalLabelPosition=bottom;verticalAlign=top;html=1;shape=process;whiteSpace=wrap;rounded=1;size=0.14;arcSize=6;strokeWidth=1;" vertex="1" parent="1">
          <mxGeometry x="655" y="390" width="100" height="20" as="geometry" />
        </mxCell>
        <mxCell id="CYzxPPFydzRlZ302f4nZ-19" style="edgeStyle=entityRelationEdgeStyle;rounded=0;orthogonalLoop=1;jettySize=auto;html=1;entryX=0;entryY=0.5;entryDx=0;entryDy=0;strokeWidth=1;" edge="1" parent="1" source="CYzxPPFydzRlZ302f4nZ-6" target="CYzxPPFydzRlZ302f4nZ-10">
          <mxGeometry relative="1" as="geometry" />
        </mxCell>
        <mxCell id="CYzxPPFydzRlZ302f4nZ-6" value="File Opener" style="verticalLabelPosition=bottom;verticalAlign=top;html=1;shape=process;whiteSpace=wrap;rounded=1;size=0.14;arcSize=6;strokeWidth=1;" vertex="1" parent="1">
          <mxGeometry x="710" y="550" width="100" height="50" as="geometry" />
        </mxCell>
        <mxCell id="CYzxPPFydzRlZ302f4nZ-24" style="edgeStyle=entityRelationEdgeStyle;rounded=0;orthogonalLoop=1;jettySize=auto;html=1;startArrow=classic;startFill=1;dashed=1;strokeWidth=1;" edge="1" parent="1" source="CYzxPPFydzRlZ302f4nZ-7" target="CYzxPPFydzRlZ302f4nZ-5">
          <mxGeometry relative="1" as="geometry" />
        </mxCell>
        <mxCell id="CYzxPPFydzRlZ302f4nZ-25" style="edgeStyle=entityRelationEdgeStyle;rounded=0;orthogonalLoop=1;jettySize=auto;html=1;startArrow=classic;startFill=1;dashed=1;strokeWidth=1;" edge="1" parent="1" source="CYzxPPFydzRlZ302f4nZ-7" target="CYzxPPFydzRlZ302f4nZ-6">
          <mxGeometry relative="1" as="geometry" />
        </mxCell>
        <mxCell id="CYzxPPFydzRlZ302f4nZ-7" value="Document Editor" style="verticalLabelPosition=bottom;verticalAlign=top;html=1;shape=process;whiteSpace=wrap;rounded=1;size=0.14;arcSize=6;strokeWidth=1;" vertex="1" parent="1">
          <mxGeometry x="345" y="250" width="100" height="20" as="geometry" />
        </mxCell>
        <mxCell id="CYzxPPFydzRlZ302f4nZ-15" style="edgeStyle=entityRelationEdgeStyle;rounded=0;orthogonalLoop=1;jettySize=auto;html=1;entryX=0;entryY=0.5;entryDx=0;entryDy=0;strokeWidth=1;" edge="1" parent="1" source="CYzxPPFydzRlZ302f4nZ-9" target="CYzxPPFydzRlZ302f4nZ-5">
          <mxGeometry relative="1" as="geometry" />
        </mxCell>
        <mxCell id="CYzxPPFydzRlZ302f4nZ-17" style="edgeStyle=entityRelationEdgeStyle;rounded=0;orthogonalLoop=1;jettySize=auto;html=1;exitX=1;exitY=0.5;exitDx=0;exitDy=0;entryX=0;entryY=0.5;entryDx=0;entryDy=0;strokeWidth=1;" edge="1" parent="1" source="CYzxPPFydzRlZ302f4nZ-9" target="CYzxPPFydzRlZ302f4nZ-6">
          <mxGeometry relative="1" as="geometry" />
        </mxCell>
        <mxCell id="CYzxPPFydzRlZ302f4nZ-9" value="File Management" style="verticalLabelPosition=bottom;verticalAlign=top;html=1;shape=process;whiteSpace=wrap;rounded=1;size=0.14;arcSize=6;strokeWidth=1;" vertex="1" parent="1">
          <mxGeometry x="345" y="550" width="100" height="20" as="geometry" />
        </mxCell>
        <mxCell id="CYzxPPFydzRlZ302f4nZ-10" value="File Saving" style="verticalLabelPosition=bottom;verticalAlign=top;html=1;shape=process;whiteSpace=wrap;rounded=1;size=0.14;arcSize=6;strokeWidth=1;" vertex="1" parent="1">
          <mxGeometry x="870" y="515" width="100" height="20" as="geometry" />
        </mxCell>
      </root>
    </mxGraphModel>
  </diagram>
  <diagram id="aQePwk1ArD7OKBFMmHbz" name="Notes">
    <mxGraphModel dx="1304" dy="763" grid="1" gridSize="10" guides="1" tooltips="1" connect="1" arrows="1" fold="1" page="1" pageScale="1" pageWidth="1100" pageHeight="850" math="0" shadow="0">
      <root>
        <mxCell id="0" />
        <mxCell id="1" parent="0" />
        <mxCell id="-cEkyML-Uj9fc8kes5GY-1" value="Notes" style="rounded=1;whiteSpace=wrap;html=1;" vertex="1" parent="1">
          <mxGeometry x="245" y="395" width="120" height="60" as="geometry" />
        </mxCell>
        <mxCell id="9mb0U-kSOoR_MNR-T0Ur-1" value="Create" style="verticalLabelPosition=bottom;verticalAlign=top;html=1;shape=process;whiteSpace=wrap;rounded=1;size=0.14;arcSize=6;dashed=1;" vertex="1" parent="1">
          <mxGeometry x="755" y="260" width="100" height="30" as="geometry" />
        </mxCell>
        <mxCell id="9mb0U-kSOoR_MNR-T0Ur-2" value="Read" style="verticalLabelPosition=bottom;verticalAlign=top;html=1;shape=process;whiteSpace=wrap;rounded=1;size=0.14;arcSize=6;dashed=1;" vertex="1" parent="1">
          <mxGeometry x="755" y="360" width="100" height="30" as="geometry" />
        </mxCell>
        <mxCell id="9mb0U-kSOoR_MNR-T0Ur-3" value="Delete" style="verticalLabelPosition=bottom;verticalAlign=top;html=1;shape=process;whiteSpace=wrap;rounded=1;size=0.14;arcSize=6;dashed=1;" vertex="1" parent="1">
          <mxGeometry x="755" y="560" width="100" height="30" as="geometry" />
        </mxCell>
        <mxCell id="9mb0U-kSOoR_MNR-T0Ur-4" value="Update" style="verticalLabelPosition=bottom;verticalAlign=top;html=1;shape=process;whiteSpace=wrap;rounded=1;size=0.14;arcSize=6;dashed=1;" vertex="1" parent="1">
          <mxGeometry x="755" y="460" width="100" height="30" as="geometry" />
        </mxCell>
        <mxCell id="9mb0U-kSOoR_MNR-T0Ur-9" style="edgeStyle=entityRelationEdgeStyle;rounded=0;orthogonalLoop=1;jettySize=auto;html=1;exitX=0;exitY=0.75;exitDx=0;exitDy=0;entryX=1;entryY=0.75;entryDx=0;entryDy=0;" edge="1" parent="1" source="9mb0U-kSOoR_MNR-T0Ur-7" target="-cEkyML-Uj9fc8kes5GY-1">
          <mxGeometry relative="1" as="geometry" />
        </mxCell>
        <mxCell id="9mb0U-kSOoR_MNR-T0Ur-10" style="edgeStyle=entityRelationEdgeStyle;rounded=0;orthogonalLoop=1;jettySize=auto;html=1;exitX=1;exitY=0.5;exitDx=0;exitDy=0;entryX=0;entryY=0.5;entryDx=0;entryDy=0;" edge="1" parent="1" source="9mb0U-kSOoR_MNR-T0Ur-7" target="9mb0U-kSOoR_MNR-T0Ur-1">
          <mxGeometry relative="1" as="geometry" />
        </mxCell>
        <mxCell id="9mb0U-kSOoR_MNR-T0Ur-11" style="edgeStyle=entityRelationEdgeStyle;rounded=0;orthogonalLoop=1;jettySize=auto;html=1;entryX=0;entryY=0.5;entryDx=0;entryDy=0;" edge="1" parent="1" source="9mb0U-kSOoR_MNR-T0Ur-7" target="9mb0U-kSOoR_MNR-T0Ur-2">
          <mxGeometry relative="1" as="geometry" />
        </mxCell>
        <mxCell id="9mb0U-kSOoR_MNR-T0Ur-12" style="edgeStyle=entityRelationEdgeStyle;rounded=0;orthogonalLoop=1;jettySize=auto;html=1;entryX=0;entryY=0.5;entryDx=0;entryDy=0;" edge="1" parent="1" source="9mb0U-kSOoR_MNR-T0Ur-7" target="9mb0U-kSOoR_MNR-T0Ur-4">
          <mxGeometry relative="1" as="geometry" />
        </mxCell>
        <mxCell id="9mb0U-kSOoR_MNR-T0Ur-13" style="edgeStyle=entityRelationEdgeStyle;rounded=0;orthogonalLoop=1;jettySize=auto;html=1;entryX=0;entryY=0.5;entryDx=0;entryDy=0;" edge="1" parent="1" source="9mb0U-kSOoR_MNR-T0Ur-7" target="9mb0U-kSOoR_MNR-T0Ur-3">
          <mxGeometry relative="1" as="geometry" />
        </mxCell>
        <mxCell id="9mb0U-kSOoR_MNR-T0Ur-7" value="Editor" style="rounded=1;whiteSpace=wrap;html=1;absoluteArcSize=1;arcSize=14;strokeWidth=2;" vertex="1" parent="1">
          <mxGeometry x="535" y="375" width="100" height="100" as="geometry" />
        </mxCell>
        <mxCell id="9mb0U-kSOoR_MNR-T0Ur-8" style="edgeStyle=entityRelationEdgeStyle;rounded=0;orthogonalLoop=1;jettySize=auto;html=1;exitX=1.003;exitY=0.38;exitDx=0;exitDy=0;entryX=-0.009;entryY=0.357;entryDx=0;entryDy=0;entryPerimeter=0;exitPerimeter=0;" edge="1" parent="1" source="-cEkyML-Uj9fc8kes5GY-1" target="9mb0U-kSOoR_MNR-T0Ur-7">
          <mxGeometry relative="1" as="geometry" />
        </mxCell>
      </root>
    </mxGraphModel>
  </diagram>
</mxfile>
